HIERARCHY
ROOT Hips
{
	OFFSET 0.00000 0.00000 0.00000
	CHANNELS 6 Xposition Yposition Zposition Yrotation Zrotation Xrotation 
	JOINT Lumbar
	{
		OFFSET 0 0 0
		CHANNELS 3 Zrotation Xrotation Yrotation
		JOINT Neck
		{
			OFFSET 0.00 0.2701 0.00
			CHANNELS 3 Zrotation Xrotation Yrotation
			End Site
			{
				OFFSET 0.00 0.1379 0.00
			}
		}
		JOINT RightShoulder
		{
			OFFSET 0.0119 0.2289 0.1181
			CHANNELS 3 Zrotation Xrotation Yrotation
			JOINT RightElbow
			{
				OFFSET 0.00 -0.1475 0.00
				CHANNELS 2 Zrotation Yrotation
				JOINT RightWrist
				{
					OFFSET 0.00 -0.1605 0.00
					CHANNELS 2 Zrotation Xrotation
					End Site
					{
						OFFSET 0.0040 -0.1068 0.0006
					}
				}
			}
		}
		JOINT LeftShoulder
		{
			OFFSET 0.0119 0.2289 -0.1181
			CHANNELS 3 Zrotation Xrotation Yrotation
			JOINT LeftElbow
			{
				OFFSET 0.00 -0.1475 0.00
				CHANNELS 2 Zrotation Yrotation
				JOINT LeftWrist
				{
					OFFSET 0.00 -0.1605 0.00
					CHANNELS 2 Zrotation Xrotation
					End Site
					{
						OFFSET 0.0040 -0.1068 -0.0006
					}
				}
			}
		}
	}
	JOINT RightHip
	{
		OFFSET 0.0316 -0.0424 0.0458
		CHANNELS 3 Zrotation Xrotation Yrotation
		JOINT RightKnee
		{
			OFFSET 0.00 -0.2438 0.00
			CHANNELS 1 Zrotation
			JOINT RightAnkle
			{
				OFFSET 0.00 -0.2449 0.00
				CHANNELS 3 Zrotation Xrotation Yrotation
				End Site
				{
					OFFSET 0.1237 -0.0542 0.0051
				}
			}
		}
	}
	JOINT LeftHip
	{
		OFFSET 0.0316 -0.0424 -0.0458
		CHANNELS 3 Zrotation Xrotation Yrotation
		JOINT LeftKnee
		{
			OFFSET 0.00 -0.2438 0.00
			CHANNELS 1 Zrotation
			JOINT LeftAnkle
			{
				OFFSET 0.00 -0.2449 0.00
				CHANNELS 3 Zrotation Xrotation Yrotation
				End Site
				{
					OFFSET 0.1237 -0.0542 -0.0051
				}
			}
		}
	}
}
MOTION
Frames: 16
Frame Time: 0.02
0.35121 -0.25019 0.04377 -178.35789 16.81895 -4.63931 23.45907 5.65453 -9.19564 -32.92061 -5.19667 -0.82807 115.56736 -33.24959 54.05513 109.53655 92.59561 -15.5471 -6.88361 114.7561 39.50642 -47.00559 109.56601 -83.00919 -4.57349 6.93778 64.1407 -1.73082 -26.28533 -0.53549 -39.66109 12.50536 7.66587 59.49786 4.42244 7.99024 -0.56343 -46.38465 -13.20171 -9.53249
0.35112 -0.25004 0.04389 -178.29273 16.7802 -4.67855 23.44993 5.67881 -9.23432 -32.95085 -5.16102 -0.82807 116.93594 -33.97601 55.71719 109.48724 96.20028 -18.20353 -7.12396 116.59988 40.48988 -49.28009 109.48989 -88.14959 -7.88365 7.33203 63.76639 -1.74454 -25.88621 -0.53713 -39.65716 12.36324 7.57772 59.76896 4.20728 8.38355 -0.56249 -46.35107 -13.18971 -9.50424
0.351 -0.24984 0.04405 -178.21325 16.77066 -4.72438 23.40686 5.71437 -9.27122 -32.97225 -5.13596 -0.82807 118.60277 -34.8349 57.78539 109.40601 100.83339 -21.63688 -7.41667 118.79661 41.68479 -52.05385 109.41444 -94.58196 -12.04618 7.82123 63.43542 -1.72589 -25.7092 -0.53828 -39.63593 12.28505 7.47524 59.96391 3.93955 8.82408 -0.56155 -46.34091 -13.17482 -9.48682
0.35089 -0.24967 0.04419 -178.14165 16.74658 -4.76644 23.38146 5.74313 -9.30883 -33.00123 -5.10583 -0.82808 120.04031 -35.59128 59.56036 109.3436 104.7516 -24.51895 -7.67258 120.72327 42.72452 -54.45916 109.34028 -100.07081 -15.58821 8.2409 63.09375 -1.71974 -25.43195 -0.53964 -39.63024 12.17343 7.3828 60.19114 3.69892 9.23252 -0.56063 -46.32243 -13.15428 -9.46155
0.3508 -0.24947 0.04435 -178.06385 16.72655 -4.81225 23.34684 5.77894 -9.34739 -33.0158 -5.07635 -0.82808 121.87798 -36.52988 61.79892 109.26389 109.71591 -28.24277 -7.98359 123.10877 44.00974 -57.4537 109.25847 -107.04125 -20.09806 8.77027 62.71524 -1.72112 -25.14701 -0.54107 -39.59317 12.077 7.2768 60.42907 3.44223 9.68518 -0.55961 -46.29409 -13.1627 -9.44837
0.35067 -0.24931 0.04447 -177.99551 16.70564 -4.85167 23.32301 5.80284 -9.38315 -33.05777 -5.04811 -0.82808 122.95962 -37.12296 63.1752 109.21228 112.7633 -30.41108 -8.19311 124.63192 44.84001 -59.35313 109.19336 -111.26821 -22.81805 9.09632 62.42326 -1.69983 -24.93263 -0.54222 -39.61635 11.96498 7.19438 60.62627 3.20701 10.05763 -0.5588 -46.29174 -13.11098 -9.41309
0.3504 -0.24926 0.04444 -177.95956 16.67337 -4.87113 23.34034 5.79014 -9.41395 -33.18079 -5.02182 -0.82808 121.7795 -36.68094 61.96396 109.24589 110.0456 -27.90968 -8.09828 123.59064 44.3051 -57.97952 109.17088 -107.27616 -20.17668 8.81364 62.36061 -1.62379 -24.85912 -0.54267 -39.81747 11.79927 7.1897 60.72997 3.04997 10.19162 -0.55859 -46.35688 -12.88504 -9.30882
0.3501 -0.24924 0.04436 -177.9333 16.63961 -4.88394 23.36922 5.76524 -9.44144 -33.331 -4.99631 -0.82809 119.84585 -35.89475 59.88982 109.30866 105.40502 -23.85 -7.90162 121.68792 43.31589 -55.51129 109.1658 -100.54278 -15.74612 8.32781 62.38328 -1.52632 -24.84956 -0.54285 -40.07823 11.6154 7.20744 60.79519 2.91581 10.24421 -0.5586 -46.44707 -12.60019 -9.18278
0.34982 -0.2492 0.04431 -177.90078 16.60794 -4.90023 23.39073 5.74657 -9.46896 -33.46666 -4.96973 -0.82809 118.3206 -35.29658 58.27751 109.35819 101.78123 -20.61792 -7.75854 120.2408 42.57144 -53.62493 109.15516 -95.27247 -12.26873 7.95022 62.36602 -1.43898 -24.81114 -0.54316 -40.30704 11.43692 7.20891 60.87761 2.76748 10.33773 -0.55851 -46.52494 -12.34815 -9.07028
0.34952 -0.24916 0.04425 -177.87523 16.57161 -4.91501 23.41969 5.7254 -9.50297 -33.61144 -4.94637 -0.82809 116.52461 -34.56888 56.38117 109.40703 97.57475 -16.89785 -7.58565 118.53032 41.67107 -51.39333 109.13505 -89.11261 -8.21869 7.50734 62.35492 -1.34887 -24.77954 -0.54341 -40.55642 11.27208 7.23568 60.95835 2.63262 10.41658 -0.55843 -46.60781 -12.07083 -8.94321
0.34925 -0.24913 0.04419 -177.83809 16.54385 -4.93103 23.43669 5.70639 -9.52232 -33.74357 -4.91658 -0.8281 115.11338 -34.02855 54.87153 109.46409 94.13134 -13.82808 -7.45103 117.16557 40.98686 -49.62232 109.13823 -84.15969 -4.93937 7.15276 62.35098 -1.25984 -24.74603 -0.54373 -40.77645 11.07445 7.21511 61.03474 2.47655 10.50564 -0.55837 -46.68558 -11.83181 -8.84065
0.34906 -0.24908 0.04416 -177.76295 16.54394 -4.95416 23.41444 5.69634 -9.50523 -33.8362 -4.86684 -0.8281 114.91078 -34.07785 54.5876 109.54168 93.07832 -12.79975 -7.43689 116.90704 40.99083 -49.31657 109.20649 -83.00625 -4.09651 7.07511 62.34303 -1.1796 -24.6915 -0.54432 -40.90855 10.78424 7.06002 61.10589 2.25047 10.6463 -0.5583 -46.74596 -11.71646 -8.81547
0.34892 -0.24904 0.04414 -177.67653 16.55205 -4.9784 23.38039 5.68886 -9.47299 -33.91483 -4.81092 -0.8281 115.12403 -34.3277 54.72699 109.62578 92.87928 -12.49402 -7.4658 117.03332 41.22963 -49.52076 109.29665 -83.18684 -4.10672 7.09539 62.33943 -1.10126 -24.63206 -0.54498 -41.0078 10.46264 6.85649 61.1746 2.00364 10.79932 -0.55823 -46.79968 -11.64107 -8.81489
0.34876 -0.249 0.04411 -177.5978 16.55363 -5.00068 23.35431 5.68011 -9.44548 -33.99854 -4.75906 -0.8281 115.17414 -34.49473 54.70982 109.70382 92.41945 -11.95117 -7.48219 117.0232 41.37419 -49.54123 109.37348 -82.89256 -3.81238 7.08198 62.3358 -1.02187 -24.57347 -0.5456 -41.11698 10.15928 6.67388 61.2469 1.77045 10.94395 -0.55817 -46.85453 -11.54501 -8.80008
0.34857 -0.24895 0.04409 -177.50875 16.56659 -5.02868 23.31818 5.67127 -9.42664 -34.08858 -4.70193 -0.8281 115.1012 -34.62066 54.52592 109.79598 91.3968 -10.99767 -7.46789 116.82957 41.45462 -49.33232 109.46516 -81.97669 -3.12253 7.01823 62.32792 -0.94252 -24.52193 -0.54625 -41.24891 9.83827 6.49584 61.30843 1.52025 11.09681 -0.5581 -46.9184 -11.45728 -8.79722
0.34846 -0.24891 0.04406 -177.43817 16.55873 -5.04537 23.29928 5.6635 -9.38659 -34.16179 -4.65434 -0.8281 115.37781 -34.87684 54.78303 109.85987 91.7226 -11.0555 -7.52581 117.10973 41.72493 -49.72237 109.53091 -82.67285 -3.46048 7.08229 62.32762 -0.86378 -24.45515 -0.54685 -41.32539 9.54712 6.29751 61.39093 1.30025 11.23733 -0.55803 -46.96139 -11.36275 -8.77579
